# xmcd
#
# Track frame offsets:
#	150
#	21173
#	35772
#	50395
#	64230
#	78139
#	98287
#	114329
#	131047
#	147307
#	163636
#	177571
#	191458
#	205760
#	223661
#	238917
#	256008
#	272168
#	287954
#	305019
#	320580
#
# Disc length: 4508 seconds
#
# Revision: 1
# Processed by: cddbd v1.5.2PL0 Copyright (c) Steve Scherf et al.
# Submitted via: audiograbber 1.83.01
#
DISCID=37119a15
DTITLE=Various Artist - The Dome - Vol. 85 - CD1
DYEAR=2018
DGENRE=Charts
TTITLE0=Justin Timberlake ft. Chris Stapleton - Say Something
TTITLE1=The Chainsmokers - Sick Boy
TTITLE2=Rea Garvey ft. Kool Savas - Is It Love?
TTITLE3=Martin Garrix and David Guetta ft. Jamie Scott and Romy Dya - So Far Away
TTITLE4=Tom Walker - Leave A Light On
TTITLE5=G-Eazy and Halsey - Him and I
TTITLE6=Hugo Helmig - Please Don't Lie
TTITLE7=George Ezra - Paradise
TTITLE8=Dua Lipa - IDGAF
TTITLE9=Johannes Oerding - Leuchtschrift (Große Freiheit)
TTITLE10=Michael Patrick Kelly - Roundabouts
TTITLE11=Jonas Monar - Nie zu Ende
TTITLE12=Maroon 5 - Wait
TTITLE13=Demi Lovato - Tell Me You Love Me
TTITLE14=Callum Scott - You Are The Reason
TTITLE15=Die Fantastischen Vier - Tunnel
TTITLE16=Craig David ft. Bastille - I Know You
TTITLE17=Revolverheld - Immer noch fühlen
TTITLE18=Camila Cabello - Never Be The Same
TTITLE19=Lea - Leiser
TTITLE20=James Arthur - Naked
EXTD=
EXTT0=
EXTT1=
EXTT2=
EXTT3=
EXTT4=
EXTT5=
EXTT6=
EXTT7=
EXTT8=
EXTT9=
EXTT10=
EXTT11=
EXTT12=
EXTT13=
EXTT14=
EXTT15=
EXTT16=
EXTT17=
EXTT18=
EXTT19=
EXTT20=
PLAYORDER=
